# xmcd
#
# Track frame offsets:
#	150
#	9305
#	27058
#	42913
#	57068
#	74276
#	91796
#	113472
#	133401
#	145727
#	183634
#	193878
#	205280
#	223601
#	236678
#	247477
#
# Disc length: 3586 seconds
#
# Revision: 1
# Processed by: cddbd v1.5PL3 Copyright (c) Steve Scherf et al.
# Submitted via: EasyCDDAExtractor 6.5.0.3
#
DISCID=ea0e0010
DTITLE=The Goat Family - Unstopperable
DYEAR=2004
DGENRE=Bluegrass
TTITLE0=Slide Rule Blues
TTITLE1=Dress My Soul
TTITLE2=(That's What My) Mommie Said
TTITLE3=Sorrow
TTITLE4=Jolly Young World
TTITLE5=Little Birdie
TTITLE6=Theme From "Clinging Fire"
TTITLE7=Hey Joey
TTITLE8=Tonight
TTITLE9=Lost Man Moan
TTITLE10=You Don't Know My Mind
TTITLE11=Pick A Bale of Cotton
TTITLE12=Death Letter Blues
TTITLE13=Ring of Fire
TTITLE14=All For Me Grog
TTITLE15=Lonesome Walkin' Cat Blues
EXTD=
EXTT0=
EXTT1=
EXTT2=
EXTT3=
EXTT4=
EXTT5=
EXTT6=
EXTT7=
EXTT8=
EXTT9=
EXTT10=
EXTT11=
EXTT12=
EXTT13=
EXTT14=
EXTT15=
PLAYORDER=
